<?xml version="1.0" encoding="UTF-8" standalone="no"?>
<!-- Created with Inkscape (http://www.inkscape.org/) -->

<svg
   xmlns:dc="http://purl.org/dc/elements/1.1/"
   xmlns:cc="http://creativecommons.org/ns#"
   xmlns:rdf="http://www.w3.org/1999/02/22-rdf-syntax-ns#"
   xmlns:svg="http://www.w3.org/2000/svg"
   xmlns="http://www.w3.org/2000/svg"
   xmlns:sodipodi="http://sodipodi.sourceforge.net/DTD/sodipodi-0.dtd"
   xmlns:inkscape="http://www.inkscape.org/namespaces/inkscape"
   width="55"
   height="55"
   id="svg2"
   version="1.1"
   inkscape:version="0.48.4 r9939"
   sodipodi:docname="Nuevo documento 1">
  <defs
     id="defs4" />
  <sodipodi:namedview
     id="base"
     pagecolor="#ffffff"
     bordercolor="#666666"
     borderopacity="1.0"
     inkscape:pageopacity="0.0"
     inkscape:pageshadow="2"
     inkscape:zoom="9.98"
     inkscape:cx="46.046493"
     inkscape:cy="29.400846"
     inkscape:document-units="px"
     inkscape:current-layer="layer1"
     showgrid="false"
     inkscape:window-width="1301"
     inkscape:window-height="744"
     inkscape:window-x="65"
     inkscape:window-y="24"
     inkscape:window-maximized="1" />
  <metadata
     id="metadata7">
    <rdf:RDF>
      <cc:Work
         rdf:about="">
        <dc:format>image/svg+xml</dc:format>
        <dc:type
           rdf:resource="http://purl.org/dc/dcmitype/StillImage" />
        <dc:title></dc:title>
      </cc:Work>
    </rdf:RDF>
  </metadata>
  <g
     inkscape:label="Capa 1"
     inkscape:groupmode="layer"
     id="layer1"
     transform="translate(0,-997.36218)">
    <g
       id="g3891">
      <path
         sodipodi:nodetypes="cccccccccccccc"
         inkscape:connector-curvature="0"
         id="path3098"
         d="m 15.931863,1044.7469 0.300601,-21.6432 c 3.906508,-0.3688 7.132824,-8.8639 9.91984,-14.5291 l -0.200401,-7.6152 c 1.903808,-2.31831 3.807615,-1.63796 5.711423,-1.10223 1.367389,3.03153 2.499187,6.12203 2.805611,9.41883 l -1.603206,9.519 15.230461,0.1002 c 2.359003,2.3361 2.801522,4.8465 -0.701403,7.7155 2.566614,2.1682 2.008669,4.4784 -1.302605,6.9138 2.574717,3.0736 0.617971,4.9547 -1.803607,6.7134 3.153448,2.3681 0.328912,4.9852 -2.805611,7.6153 l -20.541083,-1.1022 c -1.554816,-1.82 -3.189026,-2.8459 -5.01002,-2.0041 z"
         style="fill:#ffffff;stroke:#000000;stroke-width:1px;stroke-linecap:butt;stroke-linejoin:miter;stroke-opacity:1" />
      <path
         transform="translate(0,997.36218)"
         inkscape:connector-curvature="0"
         id="path3100"
         d="m 16.032064,25.941884 -8.7174347,0 0,22.244489 8.5170337,0 0,-0.100201"
         style="fill:none;stroke:#000000;stroke-width:1px;stroke-linecap:butt;stroke-linejoin:miter;stroke-opacity:1" />
      <path
         transform="translate(0,997.36218)"
         inkscape:connector-curvature="0"
         id="path3102"
         d="m 7.8400802,37.06208 0,-10.621242 3.9078158,0 3.907815,0 -0.0042,1.477956 c -0.0035,1.246508 -0.275086,19.66527 -0.291056,19.739479 -0.003,0.01378 -1.696273,0.02505 -3.762906,0.02505 l -3.7575148,0 0,-10.621243 z"
         style="fill:#000000;fill-opacity:1;stroke:none" />
    </g>
  </g>
</svg>
